<svg viewBox="0 0 981.24 708.34" xmlns="http://www.w3.org/2000/svg">
    <defs>
        <style>
            .cls-1,.cls-3,.cls-9{fill:#181c1a;}.cls-2,.cls-3{isolation:isolate;}.cls-3{font-size:56.77px;font-family:Cambria;}.cls-4{letter-spacing:-0.02em;}.cls-5{letter-spacing:0em;}.cls-6{letter-spacing:-0.09em;}.cls-7{fill:#cbeef3;}.cls-7,.cls-8,.cls-9{fill-rule:evenodd;}.cls-8{fill:#06dab0;}
        </style>
    </defs>
    <g data-name="Layer 2" id="Layer_2">
        <g data-name="Layer 1" id="Layer_1-2">
            <g data-name="Group 178" id="Group_178">
                <g data-name="Group 170" id="Group_170">
                    <path class="cls-1" d="M426.83,487.57h0l.18,4Z" data-name="Path 2144"
                        id="Path_2144" />
                    <path class="cls-1" d="M383.19,438l18.74,5.39V429.94H383.18Z"
                        data-name="Path 2145" id="Path_2145" />
                    <path class="cls-1" d="M383.19,449.39l18.74-3.06v-2.95L383.19,438Z"
                        data-name="Path 2146" id="Path_2146" />
                    <path class="cls-1" d="M383.19,449.77l18.75,7.94V446.34l-18.74,3.06Z"
                        data-name="Path 2147" id="Path_2147" />
                    <path class="cls-1" d="M383.19,449.39l18.74-3.06h0Z" data-name="Path 2148"
                        id="Path_2148" />
                    <path class="cls-1" d="M383.19,464.82l18.75-2.29v-4.82l-18.75-7.94Z"
                        data-name="Path 2149" id="Path_2149" />
                    <path class="cls-1" d="M383.19,465.92,401.94,470v-7.5l-18.75,2.29Z"
                        data-name="Path 2150" id="Path_2150" />
                    <path class="cls-1" d="M383.19,483l18.75-7.47V470l-18.75-4.1Z"
                        data-name="Path 2151" id="Path_2151" />
                    <path class="cls-1" d="M383.19,485l18.75,4.63V475.48L383.19,483Z"
                        data-name="Path 2152" id="Path_2152" />
                    <path class="cls-1" d="M383.2,498l.23,0h14L383.2,486.79Z" data-name="Path 2153"
                        id="Path_2153" />
                    <path class="cls-1" d="M383.2,486.79l14.21,11.28h4.53v-8.41L383.19,485Z"
                        data-name="Path 2154" id="Path_2154" />
                    <path class="cls-1" d="M383.2,498.07h.23l-.23,0Z" data-name="Path 2155"
                        id="Path_2155" />
                    <path class="cls-1"
                        d="M411.28,461.86l8.86,6.92H436.7l8.08-4.13V460l-33.49,1.41Z"
                        data-name="Path 2156" id="Path_2156" />
                    <path class="cls-1" d="M411.28,468.78h8.86l-8.86-6.92Z" data-name="Path 2157"
                        id="Path_2157" />
                    <path class="cls-1" d="M411.28,461.42,444.77,460v-1.73H411.28Z"
                        data-name="Path 2158" id="Path_2158" />
                    <path class="cls-1" d="M444.78,468.78v-4l-7.58,4Z" data-name="Path 2159"
                        id="Path_2159" />
                    <path class="cls-1" d="M437.2,468.78l7.58-4v-.14l-8.08,4.13Z"
                        data-name="Path 2160" id="Path_2160" />
                    <path class="cls-1" d="M430.59,430H411.28v10.51h4.15l4.65-3.22Z"
                        data-name="Path 2161" id="Path_2161" />
                    <path class="cls-1" d="M430.59,430l-10.51,7.28,10.24,3.23h12.23L444.13,430Z"
                        data-name="Path 2162" id="Path_2162" />
                    <path class="cls-1" d="M420.08,437.23,430.59,430h0Z" data-name="Path 2163"
                        id="Path_2163" />
                    <path class="cls-1" d="M442.55,440.46h6.23V430h-4.65Z" data-name="Path 2164"
                        id="Path_2164" />
                    <path class="cls-1" d="M415.43,440.46h5.91l-1.26-3.23Z" data-name="Path 2165"
                        id="Path_2165" />
                    <path class="cls-1" d="M420.08,437.23l-4.65,3.22h0Z" data-name="Path 2166"
                        id="Path_2166" />
                    <path class="cls-1" d="M420.08,437.23l1.25,3.23h9l-10.24-3.23Z"
                        data-name="Path 2167" id="Path_2167" />
                    <path class="cls-1" d="M434.46,487.57h-7.63l.18,4Z" data-name="Path 2169"
                        id="Path_2169" />
                    <path class="cls-1" d="M434.46,487.57l-7.45,4,21.79,6.13v-5l-2.42-5.21Z"
                        data-name="Path 2170" id="Path_2170" />
                    <path class="cls-1" d="M448.79,492.78v-5.21h-2.42Z" data-name="Path 2171"
                        id="Path_2171" />
                    <path class="cls-1" d="M426.83,487.57H411.29v.61L427,491.62Z"
                        data-name="Path 2172" id="Path_2172" />
                    <path class="cls-1" d="M411.29,488.17v9.91h8l7.68-6.46Z" data-name="Path 2173"
                        id="Path_2173" />
                    <path class="cls-1" d="M419.33,498.08h9.9L427,491.62Z" data-name="Path 2174"
                        id="Path_2174" />
                    <path class="cls-1" d="M429.23,498.08H448.8v-.33L427,491.62Z"
                        data-name="Path 2175" id="Path_2175" />
                </g>
                <g data-name="Group 171" id="Group_171">
                    <path class="cls-1" d="M297.58,446.21l18.86-3.08h0Z" data-name="Path 2176"
                        id="Path_2176" />
                    <path class="cls-1" d="M316.44,439.93V430H297.58v4.49Z" data-name="Path 2177"
                        id="Path_2177" />
                    <path class="cls-1" d="M297.58,446.21l18.86-3.08v-3.2l-18.86-5.42Z"
                        data-name="Path 2178" id="Path_2178" />
                    <path class="cls-1" d="M316.44,454.19V443.13l-18.86,3.08Z" data-name="Path 2179"
                        id="Path_2179" />
                    <path class="cls-1" d="M297.58,461.61l18.86-2.31v-5.1l-18.86-8Z"
                        data-name="Path 2180" id="Path_2180" />
                    <path class="cls-1" d="M297.58,462.49l18.87,4.13v-7.33l-18.86,2.32Z"
                        data-name="Path 2181" id="Path_2181" />
                    <path class="cls-1" d="M297.59,479.92l18.86-7.53v-5.77l-18.87-4.14Z"
                        data-name="Path 2182" id="Path_2182" />
                    <path class="cls-1" d="M297.59,481.58l18.86,4.66V472.39l-18.86,7.52Z"
                        data-name="Path 2183" id="Path_2183" />
                    <path class="cls-1" d="M297.59,494.62,316.45,498l-18.86-15Z"
                        data-name="Path 2184" id="Path_2184" />
                    <path class="cls-1" d="M297.59,483l18.86,15V486.24l-18.86-4.66Z"
                        data-name="Path 2185" id="Path_2185" />
                    <path class="cls-1" d="M297.59,498h18.86l-18.86-3.34Z" data-name="Path 2186"
                        id="Path_2186" />
                    <path class="cls-1"
                        d="M340.48,430.22c-1.62-.11-3.29-.19-5.05-.19h-9.64v10.39l9.32-6.47Z"
                        data-name="Path 2187" id="Path_2187" />
                    <path class="cls-1"
                        d="M335.12,433.94l21.92,6.9.87-5.79c-4.46-2.73-10.29-4.33-17.42-4.84Z"
                        data-name="Path 2188" id="Path_2188" />
                    <path class="cls-1" d="M335.12,433.94l5.37-3.73h0Z" data-name="Path 2189"
                        id="Path_2189" />
                    <path class="cls-1"
                        d="M364.15,440.84a18.93,18.93,0,0,0-6.18-5.75l-.07,0-.86,5.79Z"
                        data-name="Path 2190" id="Path_2190" />
                    <path class="cls-1" d="M325.79,440.41v.13h7.64a25,25,0,0,1,5,.47l-3.36-7.07Z"
                        data-name="Path 2191" id="Path_2191" />
                    <path class="cls-1" d="M335.12,433.94l-9.33,6.46h0Z" data-name="Path 2192"
                        id="Path_2192" />
                    <path class="cls-1"
                        d="M335.12,433.94h0l3.35,7.06a14.52,14.52,0,0,1,4.93,1.88,7.33,7.33,0,0,1,3.52,5l10.12-7Z"
                        data-name="Path 2193" id="Path_2193" />
                    <path class="cls-1"
                        d="M346.92,447.86a8,8,0,0,1,.15,1.54,7.77,7.77,0,0,1-.23,2l17.07,3.67a11.31,11.31,0,0,0,1.8-3.63L357,440.84Z"
                        data-name="Path 2195" id="Path_2195" />
                    <path class="cls-1" d="M365.71,451.42a13.12,13.12,0,0,0-1.56-10.58H357Z"
                        data-name="Path 2196" id="Path_2196" />
                    <path class="cls-1"
                        d="M333.43,458.16h-7.64L339.71,469A16.54,16.54,0,0,1,343,470l10.92-5.6a34.34,34.34,0,0,0-5.93-1.14q10.1-2.16,14.58-6.62l-23.57,1A24.85,24.85,0,0,1,333.43,458.16Z"
                        data-name="Path 2197" id="Path_2197" />
                    <path class="cls-1"
                        d="M325.79,468.67h9.52a24.88,24.88,0,0,1,4.4.36l-13.92-10.88Z"
                        data-name="Path 2198" id="Path_2198" />
                    <path class="cls-1"
                        d="M343.4,455.87a14.36,14.36,0,0,1-4.38,1.72l23.57-1a13.71,13.71,0,0,0,1.32-1.55l-17.07-3.66A7.31,7.31,0,0,1,343.4,455.87Z"
                        data-name="Path 2199" id="Path_2199" />
                    <path class="cls-1"
                        d="M345.47,471.2a8.77,8.77,0,0,1,2.89,3L359,479.11l4.46-9.48c-.22-.2-.42-.41-.65-.61a23.1,23.1,0,0,0-8.57-4.58l-10.79,5.68A13.52,13.52,0,0,1,345.47,471.2Z"
                        data-name="Path 2200" id="Path_2200" />
                    <path class="cls-1" d="M343.44,470.12l10.79-5.68-.29-.08L343,470Z"
                        data-name="Path 2201" id="Path_2201" />
                    <path class="cls-1"
                        d="M359,479.11l-10.63-4.95a7.86,7.86,0,0,1,1,3.95,7.74,7.74,0,0,1-3.81,6.86,13.79,13.79,0,0,1-3.57,1.62l.08,1.73Z"
                        data-name="Path 2202" id="Path_2202" />
                    <path class="cls-1"
                        d="M368.24,481.86a15.66,15.66,0,0,0,.11-1.7,14.13,14.13,0,0,0-4.91-10.53L359,479.11Z"
                        data-name="Path 2203" id="Path_2203" />
                    <path class="cls-1"
                        d="M342.05,488.32l17.59,4.95.42-.22a21.54,21.54,0,0,0,4-3L359,479.11Z"
                        data-name="Path 2204" id="Path_2204" />
                    <path class="cls-1" d="M364.07,490a13.35,13.35,0,0,0,4.17-8.15L359,479.11Z"
                        data-name="Path 2205" id="Path_2205" />
                    <path class="cls-1"
                        d="M342,486.59a22.61,22.61,0,0,1-6.53.86H325.8v.66l16.25.22Z"
                        data-name="Path 2206" id="Path_2206" />
                    <path class="cls-1" d="M342,486.59h0l.08,1.73Z" data-name="Path 2207"
                        id="Path_2207" />
                    <path class="cls-1" d="M325.79,488.11V498h4.8L342,488.32Z" data-name="Path 2208"
                        id="Path_2208" />
                    <path class="cls-1" d="M330.59,498h7a69.13,69.13,0,0,0,7.63-.42l-3.16-9.23Z"
                        data-name="Path 2209" id="Path_2209" />
                    <path class="cls-1" d="M345.21,497.55a37.51,37.51,0,0,0,14.43-4.28l-17.59-4.95Z"
                        data-name="Path 2210" id="Path_2210" />
                </g>
                <g data-name="Group 172" id="Group_172">
                    <path class="cls-1" d="M626.12,431.67v5.22l3.75-3.86Z" data-name="Path 2211"
                        id="Path_2211" />
                    <path class="cls-1"
                        d="M626.13,436.88v3.8h3.49a51.73,51.73,0,0,1,11.2,1.13L629.88,433Z"
                        data-name="Path 2212" id="Path_2212" />
                    <path class="cls-1"
                        d="M648.53,444.52l14.21-7A57.38,57.38,0,0,0,643.16,431l2.2,12.09A27.37,27.37,0,0,1,648.53,444.52Z"
                        data-name="Path 2213" id="Path_2213" />
                    <path class="cls-1"
                        d="M652.23,446.82l19.33,2.93-.32-6a38,38,0,0,0-5.3-4.3c-1-.7-2.09-1.35-3.2-2l-14.21,7A24.72,24.72,0,0,1,652.23,446.82Z"
                        data-name="Path 2214" id="Path_2214" />
                    <path class="cls-1" d="M676,449.76a29.11,29.11,0,0,0-4.76-6l.33,6Z"
                        data-name="Path 2215" id="Path_2215" />
                    <path class="cls-1"
                        d="M652.23,446.82l.26.2a20.84,20.84,0,0,1,5.44,6.21l13.63-3.48Z"
                        data-name="Path 2216" id="Path_2216" />
                    <path class="cls-1"
                        d="M671.57,449.75l-13.64,3.48a20.29,20.29,0,0,1,2.43,7.15L665,462.3Z"
                        data-name="Path 2217" id="Path_2217" />
                    <path class="cls-1" d="M665,462.3l12.68-9.1a25.09,25.09,0,0,0-1.72-3.44h-4.44Z"
                        data-name="Path 2218" id="Path_2218" />
                    <path class="cls-1"
                        d="M679.78,464.24v-.09a28.69,28.69,0,0,0-2.06-10.95L665,462.3Z"
                        data-name="Path 2219" id="Path_2219" />
                    <path class="cls-1"
                        d="M673.79,475.91l5.52-6.31a30.09,30.09,0,0,0,.47-5.36L665,462.3Z"
                        data-name="Path 2220" id="Path_2220" />
                    <path class="cls-1"
                        d="M665,462.3l-4.84,6.61a19.84,19.84,0,0,1-1.42,4.51l15,2.49Z"
                        data-name="Path 2221" id="Path_2221" />
                    <path class="cls-1"
                        d="M660.36,460.38a26.49,26.49,0,0,1,.3,3.77,24.69,24.69,0,0,1-.46,4.76L665,462.3Z"
                        data-name="Path 2222" id="Path_2222" />
                    <path class="cls-1"
                        d="M640.81,441.81a34.35,34.35,0,0,1,4.54,1.32l-2.2-12.08a86.82,86.82,0,0,0-10.47-.92l-2.81,2.9Z"
                        data-name="Path 2223" id="Path_2223" />
                    <path class="cls-1" d="M629.88,433l2.81-2.9c-1,0-2,0-3.07,0h-3.5v1.59Z"
                        data-name="Path 2224" id="Path_2224" />
                    <path class="cls-1" d="M626.14,498h3.49l1.29,0-4.78-6Z" data-name="Path 2225"
                        id="Path_2225" />
                    <path class="cls-1"
                        d="M629.63,487.6h-3.49v4.45l4.78,5.95,2.16,0,7-11.31A52.55,52.55,0,0,1,629.63,487.6Z"
                        data-name="Path 2226" id="Path_2226" />
                    <path class="cls-1"
                        d="M640.05,486.65l-7,11.3a77.87,77.87,0,0,0,17.49-2.42l-5.06-10.42A36.4,36.4,0,0,1,640.05,486.65Z"
                        data-name="Path 2227" id="Path_2227" />
                    <path class="cls-1" d="M658.79,473.42a19.78,19.78,0,0,1-3.87,5.67l18.87-3.18Z"
                        data-name="Path 2228" id="Path_2228" />
                    <path class="cls-1"
                        d="M654.91,479.09a23.07,23.07,0,0,1-2.41,2.19,25.89,25.89,0,0,1-4,2.54l13.15,7.51a47.57,47.57,0,0,0,4.34-2.56c.27-.17.52-.36.79-.55l7.06-12.32Z"
                        data-name="Path 2229" id="Path_2229" />
                    <path class="cls-1"
                        d="M645.51,485.11l5.06,10.42a53.86,53.86,0,0,0,11-4.2l-13.15-7.51A27.79,27.79,0,0,1,645.51,485.11Z"
                        data-name="Path 2230" id="Path_2230" />
                    <path class="cls-1"
                        d="M666.73,488.23c6.94-4.78,11.42-11.41,12.58-18.63l-5.52,6.31Z"
                        data-name="Path 2231" id="Path_2231" />
                    <path class="cls-1" d="M597.91,430.07v9.66l18.86,4.72v-1.51L606,430.07Z"
                        data-name="Path 2232" id="Path_2232" />
                    <path class="cls-1" d="M616.78,442.94V430.07H606Z" data-name="Path 2233"
                        id="Path_2233" />
                    <path class="cls-1" d="M597.92,445.38l11.26,6.28,7.6-5.62v-1.59l-18.86-4.72Z"
                        data-name="Path 2234" id="Path_2234" />
                    <path class="cls-1" d="M597.92,445.38v14l11.26-7.7Z" data-name="Path 2235"
                        id="Path_2235" />
                    <path class="cls-1" d="M616.78,459.78V446l-7.6,5.62Z" data-name="Path 2236"
                        id="Path_2236" />
                    <path class="cls-1" d="M597.92,459.36v4.25L608.3,463l8.48-.52v-2.65l-7.6-8.13Z"
                        data-name="Path 2237" id="Path_2237" />
                    <path class="cls-1" d="M597.92,463.61v7.72L608.3,463Z" data-name="Path 2238"
                        id="Path_2238" />
                    <path class="cls-1" d="M608.3,463l-10.38.65h0Z" data-name="Path 2239"
                        id="Path_2239" />
                    <path class="cls-1" d="M612,476.75l4.82-9.74v-4.58l-8.48.53Z"
                        data-name="Path 2240" id="Path_2240" />
                    <path class="cls-1" d="M608.3,463l8.48-.52h0Z" data-name="Path 2241"
                        id="Path_2241" />
                    <path class="cls-1" d="M608.3,463h0l-10.38,8.38v7.27l14-1.86Z"
                        data-name="Path 2242" id="Path_2242" />
                    <path class="cls-1" d="M616.78,481.39V467L612,476.75Z" data-name="Path 2244"
                        id="Path_2244" />
                    <path class="cls-1" d="M612,476.75l-14,1.86v10.71l2.94,2.52Z"
                        data-name="Path 2245" id="Path_2245" />
                    <path class="cls-1" d="M600.86,491.84,616.78,486v-4.6L612,476.75Z"
                        data-name="Path 2246" id="Path_2246" />
                    <path class="cls-1" d="M616.79,495.74V486l-15.93,5.85Z" data-name="Path 2247"
                        id="Path_2247" />
                    <path class="cls-1" d="M597.93,489.32v4.53l2.93-2Z" data-name="Path 2248"
                        id="Path_2248" />
                    <path class="cls-1" d="M597.93,493.85V498h18.86v-2.27l-15.93-3.9Z"
                        data-name="Path 2249" id="Path_2249" />
                </g>
                <g data-name="Group 173" id="Group_173">
                    <path class="cls-1" d="M930.4,464.8h0L917.86,464Z" data-name="Path 2250"
                        id="Path_2250" />
                    <path class="cls-1" d="M939.75,465.37l27.88,1.73h0Z" data-name="Path 2251"
                        id="Path_2251" />
                    <path class="cls-1" d="M911.54,439.5l18.2,7.94.66-2.75V430.12H923l-11.48,4.47Z"
                        data-name="Path 2252" id="Path_2252" />
                    <path class="cls-1" d="M930.4,447.49v-2.8l-.66,2.75Z" data-name="Path 2253"
                        id="Path_2253" />
                    <path class="cls-1" d="M930.4,447.77v-.28l-.66-.05Z" data-name="Path 2254"
                        id="Path_2254" />
                    <path class="cls-1" d="M929.74,447.44l-18.2-7.94v10.56l6.32,14Z"
                        data-name="Path 2255" id="Path_2255" />
                    <path class="cls-1" d="M917.86,464l12.54.78v-17l-.65-.33Z" data-name="Path 2256"
                        id="Path_2256" />
                    <path class="cls-1" d="M921.51,482.72l8.9-12.55V464.8L917.86,464Z"
                        data-name="Path 2257" id="Path_2257" />
                    <path class="cls-1" d="M911.54,450.06v18.06l6.32-4.1Z" data-name="Path 2258"
                        id="Path_2258" />
                    <path class="cls-1" d="M930.41,483.57v-13.4l-8.89,12.55Z" data-name="Path 2259"
                        id="Path_2259" />
                    <path class="cls-1" d="M917.86,464l-6.32,4.1v11.75l10,2.85Z"
                        data-name="Path 2260" id="Path_2260" />
                    <path class="cls-1" d="M924.88,488.9l5,9.17h.55v-14.5l-8.9-.85Z"
                        data-name="Path 2261" id="Path_2261" />
                    <path class="cls-1" d="M911.55,495.62v2.44h18.31l-5-9.16Z" data-name="Path 2262"
                        id="Path_2262" />
                    <path class="cls-1" d="M924.88,488.9l5,9.17h0Z" data-name="Path 2263"
                        id="Path_2263" />
                    <path class="cls-1" d="M921.51,482.72l-10,10.19v2.71l13.33-6.72Z"
                        data-name="Path 2264" id="Path_2264" />
                    <path class="cls-1" d="M924.88,488.9l-3.37-6.18Z" data-name="Path 2265"
                        id="Path_2265" />
                    <path class="cls-1" d="M911.55,479.87v13l10-10.19Z" data-name="Path 2266"
                        id="Path_2266" />
                    <path class="cls-1" d="M911.54,434.59,923,430.12H911.54Z" data-name="Path 2267"
                        id="Path_2267" />
                    <path class="cls-1"
                        d="M956.75,443.32a8.5,8.5,0,0,1,3.46,4.89l7.9-13.78q-8.4-4.28-22.2-4.3h-6.16v.13L950.42,441A14.66,14.66,0,0,1,956.75,443.32Z"
                        data-name="Path 2268" id="Path_2268" />
                    <path class="cls-1"
                        d="M950.42,441l-10.67-10.71v10.38h6.17A28.23,28.23,0,0,1,950.42,441Z"
                        data-name="Path 2269" id="Path_2269" />
                    <path class="cls-1"
                        d="M956.75,457.82a12.27,12.27,0,0,1-3.34,1.66L968,466.9a2.44,2.44,0,0,0,.28-.14L960.39,452A8.36,8.36,0,0,1,956.75,457.82Z"
                        data-name="Path 2270" id="Path_2270" />
                    <path class="cls-1"
                        d="M945.92,460.5h-6.17v4.88l27.88,1.72c.14-.06.26-.13.39-.2l-14.61-7.42A24.38,24.38,0,0,1,945.92,460.5Z"
                        data-name="Path 2271" id="Path_2271" />
                    <path class="cls-1"
                        d="M939.75,474l2.58,4,5.36,6.49,12.85-10.7-3.11-3.66a41.79,41.79,0,0,0,10.2-3l-27.88-1.73Z"
                        data-name="Path 2272" id="Path_2272" />
                    <path class="cls-1" d="M939.76,474.88l2.57,3.12-2.58-4Z" data-name="Path 2273"
                        id="Path_2273" />
                    <path class="cls-1" d="M948.13,485l20.21-2.08-7.81-9.16-12.85,10.7Z"
                        data-name="Path 2274" id="Path_2274" />
                    <path class="cls-1" d="M958.9,498.07h6.37l8.17-9.15-5.1-6L948.13,485Z"
                        data-name="Path 2275" id="Path_2275" />
                    <path class="cls-1" d="M980.22,498.07l0-1.23-6.75-7.92-8.17,9.15Z"
                        data-name="Path 2276" id="Path_2276" />
                    <path class="cls-1"
                        d="M960.44,449.52l17.94-5.09a20,20,0,0,0-7.52-8.41,25.58,25.58,0,0,0-2.75-1.59l-7.9,13.78A8.36,8.36,0,0,1,960.44,449.52Z"
                        data-name="Path 2277" id="Path_2277" />
                    <path class="cls-1"
                        d="M960.49,450.46l16.77,8.24a15.32,15.32,0,0,0,1.11-14.27l-17.93,5.09C960.47,449.83,960.49,450.14,960.49,450.46Z"
                        data-name="Path 2278" id="Path_2278" />
                    <path class="cls-1"
                        d="M960.5,450.57a9.2,9.2,0,0,1-.11,1.39l7.91,14.8a21.37,21.37,0,0,0,6-4.21,22.08,22.08,0,0,0,3-3.85l-16.77-8.24S960.5,450.53,960.5,450.57Z"
                        data-name="Path 2279" id="Path_2279" />
                    <path class="cls-1" d="M981.24,498.07l-1-1.23,0,1.23Z" data-name="Path 2280"
                        id="Path_2280" />
                </g>
                <g data-name="Group 174" id="Group_174">
                    <path class="cls-1"
                        d="M727.58,438l-2.75-5.78a50.92,50.92,0,0,0-12.55,6l5.5,9.6Z"
                        data-name="Path 2281" id="Path_2281" />
                    <path class="cls-1"
                        d="M725.24,447.24a27.68,27.68,0,0,1,5.35-2.89l-3-6.34-9.8,9.84Z"
                        data-name="Path 2282" id="Path_2282" />
                    <path class="cls-1"
                        d="M708.54,465.14l8-4.08a19.07,19.07,0,0,1,7.75-13.16c.3-.23.61-.44.92-.66l-7.45.61Z"
                        data-name="Path 2283" id="Path_2283" />
                    <path class="cls-1"
                        d="M716.38,464.66c0-.2,0-.39,0-.6a21.36,21.36,0,0,1,.21-3l-8,4.08Z"
                        data-name="Path 2284" id="Path_2284" />
                    <path class="cls-1" d="M718.52,473.45a19.88,19.88,0,0,1-2.14-8.79l-7.84.48Z"
                        data-name="Path 2285" id="Path_2285" />
                    <path class="cls-1" d="M716.38,464.66h0l-7.84.48Z" data-name="Path 2286"
                        id="Path_2286" />
                    <path class="cls-1"
                        d="M699.88,476.32a27.82,27.82,0,0,0,2.28,3.93L728.89,483a26.31,26.31,0,0,1-4.58-2.8,20.13,20.13,0,0,1-5.79-6.76l-10-8.31Z"
                        data-name="Path 2287" id="Path_2287" />
                    <path class="cls-1"
                        d="M745,498.86h.71l5.76-10.6L750.38,486a48.61,48.61,0,0,1-5.4.32,38,38,0,0,1-14.44-2.56l9.31,14.94C741.52,498.8,743.23,498.86,745,498.86Z"
                        data-name="Path 2288" id="Path_2288" />
                    <path class="cls-1"
                        d="M711,489A50,50,0,0,0,722.06,495l7.88-11.47c-.35-.15-.71-.3-1.05-.46l-26.73-2.76A36,36,0,0,0,711,489Z"
                        data-name="Path 2289" id="Path_2289" />
                    <path class="cls-1"
                        d="M739.85,498.69l-9.31-14.94-.6-.27L722.06,495A60.34,60.34,0,0,0,739.85,498.69Z"
                        data-name="Path 2290" id="Path_2290" />
                    <path class="cls-1"
                        d="M756.1,498l-4.65-9.79-5.76,10.6A72.21,72.21,0,0,0,756.1,498Z"
                        data-name="Path 2291" id="Path_2291" />
                    <path class="cls-1" d="M745.69,498.85l5.76-10.6h0Z" data-name="Path 2292"
                        id="Path_2292" />
                    <path class="cls-1"
                        d="M717.78,447.85l-5.5-9.59c-.41.27-.82.54-1.22.83a39.7,39.7,0,0,0-6,5.15Z"
                        data-name="Path 2293" id="Path_2293" />
                    <path class="cls-1" d="M705.09,444.25a28.1,28.1,0,0,0-7.18,13.37l19.87-9.77Z"
                        data-name="Path 2294" id="Path_2294" />
                    <path class="cls-1"
                        d="M717.78,447.85l-19.87,9.77c-.14.64-.26,1.28-.35,1.94l11,5.58Z"
                        data-name="Path 2295" id="Path_2295" />
                    <path class="cls-1"
                        d="M697.56,459.56a29.45,29.45,0,0,0-.34,4.5,28.38,28.38,0,0,0,2.65,12.26l8.66-11.18Z"
                        data-name="Path 2296" id="Path_2296" />
                    <path class="cls-1"
                        d="M733.72,430.13l.56,1.16,1.43-1.43C735,429.94,734.37,430,733.72,430.13Z"
                        data-name="Path 2297" id="Path_2297" />
                    <path class="cls-1"
                        d="M762.52,431.44A67.29,67.29,0,0,0,745,429.27c-.53,0-1.06,0-1.58,0l3,12.57a41.89,41.89,0,0,1,7.26.78l17.74-7.73Z"
                        data-name="Path 2298" id="Path_2298" />
                    <path class="cls-1"
                        d="M735.7,429.86l-1.43,1.43,5.16,10.86a46.41,46.41,0,0,1,5.54-.33c.5,0,1,0,1.47.05l-3-12.57A68.94,68.94,0,0,0,735.7,429.86Z"
                        data-name="Path 2299" id="Path_2299" />
                    <path class="cls-1" d="M753.71,442.65a28.83,28.83,0,0,1,11.86,5.21l0,0,5.86-13Z"
                        data-name="Path 2300" id="Path_2300" />
                    <path class="cls-1"
                        d="M771.45,434.92l-5.86,13A19.33,19.33,0,0,1,773.47,464a21.76,21.76,0,0,1-1,6.63l5.61,3.65Z"
                        data-name="Path 2301" id="Path_2301" />
                    <path class="cls-1" d="M772.47,470.65a18.6,18.6,0,0,1-3.39,6.22l9-2.57Z"
                        data-name="Path 2302" id="Path_2302" />
                    <path class="cls-1" d="M765,496c1-.33,2-.69,3-1.07l-4.62-2.33Z"
                        data-name="Path 2303" id="Path_2303" />
                    <path class="cls-1" d="M763.4,492.56l4.62,2.33,1-.39-9.13-9.34Z"
                        data-name="Path 2304" id="Path_2304" />
                    <path class="cls-1"
                        d="M769.08,476.87a21.92,21.92,0,0,1-3.5,3.36,26.86,26.86,0,0,1-6.34,3.59l.64,1.34L769,494.5c.92-.38,1.83-.78,2.72-1.21l6.35-19Z"
                        data-name="Path 2305" id="Path_2305" />
                    <path class="cls-1"
                        d="M771.73,493.29A49.18,49.18,0,0,0,779,489a43.52,43.52,0,0,0,3.77-3l-4.65-11.7Z"
                        data-name="Path 2306" id="Path_2306" />
                    <path class="cls-1" d="M771.45,434.92l.27-.09a53,53,0,0,0-9.19-3.39Z"
                        data-name="Path 2307" id="Path_2307" />
                    <path class="cls-1"
                        d="M789.43,450.55A34,34,0,0,0,779,439.11a49.27,49.27,0,0,0-7.23-4.27l-.27.09Z"
                        data-name="Path 2308" id="Path_2308" />
                    <path class="cls-1"
                        d="M778.08,474.3l14.12-15.94a27.52,27.52,0,0,0-2.77-7.81l-18-15.63Z"
                        data-name="Path 2309" id="Path_2309" />
                    <path class="cls-1"
                        d="M789.67,477.13a28.21,28.21,0,0,0,3.06-13.06,30.49,30.49,0,0,0-.53-5.71L778.09,474.3Z"
                        data-name="Path 2310" id="Path_2310" />
                    <path class="cls-1" d="M782.73,486a31.32,31.32,0,0,0,6.94-8.87l-11.59-2.83Z"
                        data-name="Path 2311" id="Path_2311" />
                </g>
                <g data-name="Group 175" id="Group_175">
                    <path class="cls-1" d="M463.38,466l11.91-.75,6.95-.43h0L463.38,466Z"
                        data-name="Path 2312" id="Path_2312" />
                    <path class="cls-1" d="M491.6,498h4.46l-4.46-5.55Z" data-name="Path 2313"
                        id="Path_2313" />
                    <path class="cls-1" d="M491.59,487.58v4.86l4.46,5.55h5.4l6.41-10.41Z"
                        data-name="Path 2314" id="Path_2314" />
                    <path class="cls-1" d="M507.88,487.58,501.47,498h16.18l-5-10.42Z"
                        data-name="Path 2315" id="Path_2315" />
                    <path class="cls-1" d="M519.76,488.58v-1H518Z" data-name="Path 2316"
                        id="Path_2316" />
                    <path class="cls-1" d="M512.59,487.58,517.65,498h2.11v-9.42l-1.75-1Z"
                        data-name="Path 2317" id="Path_2317" />
                    <path class="cls-1" d="M482.24,446.37v-2.95L471,430.05h-7.63v11.6Z"
                        data-name="Path 2318" id="Path_2318" />
                    <path class="cls-1" d="M482.24,430.05H471l11.23,13.37Z" data-name="Path 2319"
                        id="Path_2319" />
                    <path class="cls-1" d="M463.38,446.83l12.8,7.13,6.06-4.49v-3.1l-18.86-4.72Z"
                        data-name="Path 2320" id="Path_2320" />
                    <path class="cls-1" d="M463.38,446.83V462.7l12.8-8.74Z" data-name="Path 2321"
                        id="Path_2321" />
                    <path class="cls-1" d="M482.24,460.45v-11L476.18,454Z" data-name="Path 2322"
                        id="Path_2322" />
                    <path class="cls-1" d="M463.38,462.7V466l18.86-1.18v-4.38L476.18,454Z"
                        data-name="Path 2323" id="Path_2323" />
                    <path class="cls-1" d="M463.38,466v8.85l11.91-9.6Z" data-name="Path 2324"
                        id="Path_2324" />
                    <path class="cls-1" d="M479,479.05l3.29-6.65v-7.57l-6.95.44Z"
                        data-name="Path 2325" id="Path_2325" />
                    <path class="cls-1" d="M475.29,465.26l-11.91,9.61v6.24L479,479.05Z"
                        data-name="Path 2326" id="Path_2326" />
                    <path class="cls-1" d="M482.25,482.21V472.4L479,479Z" data-name="Path 2327"
                        id="Path_2327" />
                    <path class="cls-1" d="M479,479.05l-15.57,2.06v9.19l4.47,3.84Z"
                        data-name="Path 2328" id="Path_2328" />
                    <path class="cls-1" d="M467.86,494.14l14.39-5.29v-6.64L479,479Z"
                        data-name="Path 2329" id="Path_2329" />
                    <path class="cls-1" d="M482.25,497.67v-8.82l-14.39,5.29Z" data-name="Path 2330"
                        id="Path_2330" />
                    <path class="cls-1" d="M463.39,490.3v6.9l4.47-3.06Z" data-name="Path 2331"
                        id="Path_2331" />
                    <path class="cls-1" d="M463.39,497.2V498h18.86v-.33l-14.39-3.53Z"
                        data-name="Path 2332" id="Path_2332" />
                </g>
                <g data-name="Group 176" id="Group_176">
                    <path class="cls-1" d="M555.5,458.78H536.18v10.51h4.15l4.65-3.22Z"
                        data-name="Path 2333" id="Path_2333" />
                    <path class="cls-1" d="M555.5,458.78,545,466.07l10.24,3.22h12.23L569,458.78Z"
                        data-name="Path 2334" id="Path_2334" />
                    <path class="cls-1" d="M545,466.07l10.51-7.29h0Z" data-name="Path 2335"
                        id="Path_2335" />
                    <path class="cls-1" d="M567.46,469.29h6.23V458.78H569Z" data-name="Path 2336"
                        id="Path_2336" />
                    <path class="cls-1" d="M540.34,469.29h5.91L545,466.07Z" data-name="Path 2337"
                        id="Path_2337" />
                    <path class="cls-1" d="M545,466.07l-4.65,3.22h0Z" data-name="Path 2338"
                        id="Path_2338" />
                    <path class="cls-1" d="M545,466.07l1.25,3.22h9L545,466.07Z"
                        data-name="Path 2339" id="Path_2339" />
                </g>
                <g data-name="Group 177" id="Group_177">
                    <path class="cls-1"
                        d="M834.2,438l-2.75-5.78a50.73,50.73,0,0,0-12.55,6l5.5,9.59Z"
                        data-name="Path 2341" id="Path_2341" />
                    <path class="cls-1"
                        d="M831.86,447.26a27.68,27.68,0,0,1,5.35-2.89l-3-6.34-9.8,9.84Z"
                        data-name="Path 2342" id="Path_2342" />
                    <path class="cls-1"
                        d="M815.16,465.16l8-4.08a19.06,19.06,0,0,1,7.75-13.16c.3-.23.62-.44.93-.66l-7.46.6Z"
                        data-name="Path 2343" id="Path_2343" />
                    <path class="cls-1"
                        d="M823,464.68c0-.2,0-.4,0-.6a24.89,24.89,0,0,1,.21-3l-8,4.07Z"
                        data-name="Path 2344" id="Path_2344" />
                    <path class="cls-1" d="M825.14,473.47a20,20,0,0,1-2.14-8.79l-7.84.48Z"
                        data-name="Path 2345" id="Path_2345" />
                    <path class="cls-1" d="M823,464.68h0l-7.84.48Z" data-name="Path 2346"
                        id="Path_2346" />
                    <path class="cls-1"
                        d="M806.5,476.34a27.82,27.82,0,0,0,2.28,3.93L835.51,483a27.33,27.33,0,0,1-4.58-2.8,20.24,20.24,0,0,1-5.79-6.76l-10-8.31Z"
                        data-name="Path 2347" id="Path_2347" />
                    <path class="cls-1"
                        d="M851.61,498.88h.7l5.77-10.6L857,486a46.3,46.3,0,0,1-5.4.31,37.84,37.84,0,0,1-14.44-2.56l9.31,14.95C848.14,498.82,849.86,498.88,851.61,498.88Z"
                        data-name="Path 2348" id="Path_2348" />
                    <path class="cls-1"
                        d="M817.63,489a49.29,49.29,0,0,0,11,5.92l7.88-11.46c-.35-.15-.7-.3-1-.47l-26.73-2.76A35.6,35.6,0,0,0,817.63,489Z"
                        data-name="Path 2349" id="Path_2349" />
                    <path class="cls-1"
                        d="M846.47,498.71l-9.31-14.95-.6-.26L828.68,495A60.48,60.48,0,0,0,846.47,498.71Z"
                        data-name="Path 2350" id="Path_2350" />
                    <path class="cls-1"
                        d="M862.73,498.05l-4.65-9.78-5.77,10.6A72.47,72.47,0,0,0,862.73,498.05Z"
                        data-name="Path 2351" id="Path_2351" />
                    <path class="cls-1" d="M852.31,498.87l5.77-10.6h0Z" data-name="Path 2352"
                        id="Path_2352" />
                    <path class="cls-1"
                        d="M824.4,447.87l-5.5-9.59c-.41.27-.82.54-1.22.83a39.13,39.13,0,0,0-6,5.15Z"
                        data-name="Path 2353" id="Path_2353" />
                    <path class="cls-1" d="M811.72,444.27a28.16,28.16,0,0,0-7.19,13.37l19.87-9.77Z"
                        data-name="Path 2354" id="Path_2354" />
                    <path class="cls-1"
                        d="M824.4,447.87l-19.87,9.77c-.14.63-.25,1.28-.35,1.93l11,5.59Z"
                        data-name="Path 2355" id="Path_2355" />
                    <path class="cls-1"
                        d="M804.18,459.57a31,31,0,0,0-.34,4.5,28.57,28.57,0,0,0,2.65,12.27l8.67-11.18Z"
                        data-name="Path 2356" id="Path_2356" />
                    <path class="cls-1"
                        d="M840.34,430.15l.56,1.16,1.43-1.44C841.66,430,841,430,840.34,430.15Z"
                        data-name="Path 2357" id="Path_2357" />
                    <path class="cls-1"
                        d="M869.14,431.46a67.16,67.16,0,0,0-17.48-2.18c-.54,0-1.06,0-1.59,0l3,12.57a42.9,42.9,0,0,1,7.26.79l17.75-7.73Z"
                        data-name="Path 2358" id="Path_2358" />
                    <path class="cls-1"
                        d="M842.33,429.87l-1.43,1.44,5.15,10.86a46.67,46.67,0,0,1,5.54-.33c.5,0,1,0,1.47,0l-3-12.57A73.81,73.81,0,0,0,842.33,429.87Z"
                        data-name="Path 2359" id="Path_2359" />
                    <path class="cls-1" d="M860.33,442.67a28.59,28.59,0,0,1,11.86,5.21l0,0,5.87-13Z"
                        data-name="Path 2360" id="Path_2360" />
                    <path class="cls-1"
                        d="M878.08,434.94l-5.86,13A19.32,19.32,0,0,1,880.09,464a21.5,21.5,0,0,1-1,6.63l5.62,3.65Z"
                        data-name="Path 2361" id="Path_2361" />
                    <path class="cls-1" d="M879.09,470.67a18.42,18.42,0,0,1-3.39,6.22l9-2.57Z"
                        data-name="Path 2362" id="Path_2362" />
                    <path class="cls-1" d="M871.63,496c1-.33,2-.69,3-1.07L870,492.58Z"
                        data-name="Path 2363" id="Path_2363" />
                    <path class="cls-1" d="M870,492.58l4.62,2.33,1-.39-9.13-9.35Z"
                        data-name="Path 2364" id="Path_2364" />
                    <path class="cls-1"
                        d="M875.7,476.89a21.87,21.87,0,0,1-3.5,3.35,26.54,26.54,0,0,1-6.34,3.6l.64,1.33,9.13,9.35c.93-.38,1.83-.78,2.72-1.21l6.36-19Z"
                        data-name="Path 2365" id="Path_2365" />
                    <path class="cls-1"
                        d="M878.35,493.31a49.23,49.23,0,0,0,7.23-4.26,40.06,40.06,0,0,0,3.77-3l-4.64-11.69Z"
                        data-name="Path 2366" id="Path_2366" />
                    <path class="cls-1" d="M878.08,434.94l.27-.09a53.12,53.12,0,0,0-9.2-3.39Z"
                        data-name="Path 2367" id="Path_2367" />
                    <path class="cls-1"
                        d="M896.05,450.57a33.94,33.94,0,0,0-10.48-11.44,48.65,48.65,0,0,0-7.22-4.27l-.27.08Z"
                        data-name="Path 2368" id="Path_2368" />
                    <path class="cls-1"
                        d="M884.71,474.32l14.11-15.94a27.69,27.69,0,0,0-2.77-7.82l-18-15.62Z"
                        data-name="Path 2369" id="Path_2369" />
                    <path class="cls-1"
                        d="M896.29,477.15a28.21,28.21,0,0,0,3.06-13.06,29.67,29.67,0,0,0-.53-5.71l-14.11,15.94Z"
                        data-name="Path 2370" id="Path_2370" />
                    <path class="cls-1" d="M889.35,486a31,31,0,0,0,6.94-8.86l-11.58-2.83Z"
                        data-name="Path 2371" id="Path_2371" />
                </g>
                <g class="cls-2" data-name="Save Your Time" id="Save_Your_Time">
                    <text class="cls-3" transform="matrix(1.26, 0, 0, 1, 385.71, 568.46)">S
                        <tspan class="cls-4" x="28.16" y="0">av</tspan>
                        <tspan class="cls-5" x="82.28" y="0">e</tspan>
                        <tspan class="cls-6" x="122.47" y="0">Y</tspan>
                        <tspan x="149.86" y="0">our Time</tspan>
                    </text>
                    <text class="cls-3" transform="matrix(1.26, 0, 0, 1, 385.71, 568.46)">S
                        <tspan class="cls-4" x="28.16" y="0">av</tspan>
                        <tspan class="cls-5" x="82.28" y="0">e</tspan>
                        <tspan class="cls-6" x="122.47" y="0">Y</tspan>
                        <tspan x="149.86" y="0">our Time</tspan>
                    </text>
                </g>
            </g>
            <path class="cls-7"
                d="M61.42,498.86C35,522.16,18.09,547.09,16,572.6l-.17-1.25c.32,49.43,22,100.62,45.32,132.14L88.63,655.8C65.37,603.57,51.49,544.77,61.42,498.86Z" />
            <path class="cls-8"
                d="M81.49,482.76c-3.61,38.38.85,79.68,13.83,120.07q4.29,13.38,8.92,25.93L142,563.39c-9.11-37.89-13.49-76-12.62-110.83A435.74,435.74,0,0,0,81.49,482.76Z" />
            <path class="cls-9"
                d="M190.74,423c-12.33,5.23-24.38,10.71-36,16.42.2,12.53.88,25.13,2,37.63a488.62,488.62,0,0,0,6.9,48.9l43.64-75.6c-.87-11.11-1.39-22.33-1.49-33.59Q198.16,419.87,190.74,423Z" />
            <path class="cls-9"
                d="M423.64,150.54c-11.22.76-23,1.85-35,3.26,24.82-24.07,34.4-59.81,21.48-93.23C391.81,13.19,335.24-11.56,283.75,5.29s-78.4,68.91-60.08,116.29c10.13,26.21,32,45.49,58.18,54.63-22.48,7.63-41.35,16.92-53.23,28-13.7,12.71-38.4,42.18-49,74.4,39-49,156.1-77.78,261.73-87.58a105,105,0,0,1-12.83-23.63A102.89,102.89,0,0,1,423.64,150.54Z" />
            <path class="cls-8"
                d="M640,194.24c-9.79.29-20,.64-30.48,1.06,26-24.08,36.21-60.59,23-94.69-18.32-47.39-74.89-72.13-126.39-55.28s-78.38,68.9-60.07,116.29a91.66,91.66,0,0,0,34.4,42.71c-141.78,14.94-296,50.77-362.81,140.57C103.45,364,96.79,376.14,89.89,399.64c55.4-89.74,258.45-125.38,367.6-140,17.6-2.35,119-11.72,195.59-18.52a104.42,104.42,0,0,1-6.3-13.39A100.25,100.25,0,0,1,640,194.24Z" />
            <path class="cls-7"
                d="M825.87,257.4c27.36-24,38.42-61.49,24.93-96.41-18.33-47.38-74.89-72.13-126.39-55.28S646,174.62,664.34,222a90.66,90.66,0,0,0,26.38,36.65c-82.44,4-175.34,13.26-260.86,27.21-95.72,15.6-180.73,40-235,62.29-72,29.63-135,70-167.37,114.16-20.29,27.69-31.7,59.16-26,94,5.15-56.5,89-110.2,190-149.6,208-81.09,568.09-101.46,785.85-97.56l-87.93-45.94C872.22,260.39,850.69,258.46,825.87,257.4Z" />
        </g>
    </g>
</svg>