<svg xmlns="http://www.w3.org/2000/svg" width="135.749" height="74.597"
    viewBox="0 0 135.749 74.597">
    <g transform="translate(0 -115.323)">
        <path
            d="M139.272,150.161V134.467a1.41,1.41,0,0,0-1.2-1.407,8.855,8.855,0,0,1-7.651-8.771v-.015a1.43,1.43,0,0,0-1.42-1.45H17.773a1.43,1.43,0,0,0-1.42,1.45v.015A8.855,8.855,0,0,1,8.7,133.06a1.41,1.41,0,0,0-1.2,1.407v15.695a1.418,1.418,0,0,0,1.171,1.4,6.68,6.68,0,0,1,0,13.152,1.418,1.418,0,0,0-1.171,1.4V181.8a1.41,1.41,0,0,0,1.2,1.407,8.855,8.855,0,0,1,7.651,8.771v.015a1.429,1.429,0,0,0,1.42,1.45H129a1.43,1.43,0,0,0,1.42-1.45v-.015a8.855,8.855,0,0,1,7.651-8.771,1.41,1.41,0,0,0,1.2-1.407V166.106a1.418,1.418,0,0,0-1.172-1.4,6.68,6.68,0,0,1,0-13.152A1.418,1.418,0,0,0,139.272,150.161Z"
            transform="translate(-5.512 -5.512)" fill="#007e65" />
        <path
            d="M450.9,158.129a6.683,6.683,0,0,0,5.508,6.576,1.416,1.416,0,0,1,1.172,1.395v15.7a1.408,1.408,0,0,1-1.2,1.405,8.857,8.857,0,0,0-7.65,8.772v.016a1.433,1.433,0,0,1-1.421,1.451h-6.653c.18-4.556,2.765-11.394,7.2-12a1.485,1.485,0,0,0,1.265-1.482v-42.87a1.485,1.485,0,0,0-1.265-1.482c-4.434-.6-7.018-8.236-7.2-12.791h6.653a1.433,1.433,0,0,1,1.421,1.451v.016a8.857,8.857,0,0,0,7.65,8.772,1.408,1.408,0,0,1,1.2,1.405v15.7a1.416,1.416,0,0,1-1.172,1.395A6.684,6.684,0,0,0,450.9,158.129Z"
            transform="translate(-323.824 -5.508)" fill="#007e65" />
        <path
            d="M172.21,210.253H81.771a1.326,1.326,0,0,1-1.326-1.326v-48.99a1.326,1.326,0,0,1,1.326-1.326h90.44a1.326,1.326,0,0,1,1.326,1.326v48.99A1.326,1.326,0,0,1,172.21,210.253Z"
            transform="translate(-59.116 -31.811)" fill="#222a26" />
        <path
            d="M409.261,210.253h-6.239V158.611h6.239a1.326,1.326,0,0,1,1.326,1.326v48.99A1.326,1.326,0,0,1,409.261,210.253Z"
            transform="translate(-296.167 -31.811)" fill="#28302c" />
        <path
            d="M132.935,148a3.4,3.4,0,0,0,2.814-3.355V128.954a3.407,3.407,0,0,0-2.923-3.377,6.885,6.885,0,0,1-5.93-6.812,3.427,3.427,0,0,0-1.006-2.446,3.374,3.374,0,0,0-2.4-1H12.261a3.372,3.372,0,0,0-2.4,1,3.436,3.436,0,0,0-1.006,2.457,6.882,6.882,0,0,1-5.93,6.8A3.407,3.407,0,0,0,0,128.954v15.695A3.4,3.4,0,0,0,2.814,148a4.691,4.691,0,0,1,0,9.235A3.4,3.4,0,0,0,0,160.594v15.695a3.407,3.407,0,0,0,2.923,3.377,6.885,6.885,0,0,1,5.93,6.812,3.427,3.427,0,0,0,1.006,2.446,3.374,3.374,0,0,0,2.4,1H31.723a1.989,1.989,0,0,0,0-3.978H12.817a10.881,10.881,0,0,0-8.839-10.134V161.059a8.669,8.669,0,0,0,0-16.876V129.434A10.885,10.885,0,0,0,12.817,119.3H122.932a10.881,10.881,0,0,0,8.84,10.134v14.749a8.669,8.669,0,0,0,0,16.875v14.749a10.884,10.884,0,0,0-8.839,10.134H44.1a1.989,1.989,0,1,0,0,3.978h79.391a3.372,3.372,0,0,0,2.4-1,3.435,3.435,0,0,0,1.006-2.457,6.882,6.882,0,0,1,5.93-6.8,3.407,3.407,0,0,0,2.922-3.377V160.593a3.4,3.4,0,0,0-2.814-3.355,4.691,4.691,0,0,1,0-9.235Z"
            fill="#3a4640" />
        <path
            d="M128.9,155.088a1.989,1.989,0,0,0,0-3.978H76.259a3.318,3.318,0,0,0-3.315,3.315v48.991a3.318,3.318,0,0,0,3.315,3.315H166.7a3.318,3.318,0,0,0,3.315-3.315V154.425a3.318,3.318,0,0,0-3.315-3.315H141.5a1.989,1.989,0,0,0,0,3.978h24.536v47.665H76.922V155.088Z"
            transform="translate(-53.604 -26.299)" fill="#333e39" />
        <text transform="translate(67 162.323)" fill="#cbeef3" font-size="32"
            font-family="Gayathri-Bold, Gayathri" font-weight="700">
            <tspan x="-30" y="0"></tspan>
        </text>
    </g>
</svg>